<svg xmlns="http://www.w3.org/2000/svg" viewBox="0 0 1816.65 1707.7"><defs><style>.cls-1{fill:#64d2e6;}</style></defs><g id="Layer_2" data-name="Layer 2"><g id="Layer_1-2" data-name="Layer 1"><path d="M895.58,1707.11c-64.45,0-129.27-2.77-193.42-7.17-56.74-3.9-113.41-14-169.15-26a1184.94,1184.94,0,0,1-152.33-43.25c-38.26-13.74-75-33-110.32-53.42C202.2,1537.87,143.9,1486.73,99.28,1421c-27.46-40.43-48.83-83.67-66-129.62C-4.51,1190.27-4.58,1085.88,6.12,981.24c5.12-50,20.6-98.93,30.17-148.57,2.12-11-1.19-23-1.44-34.55-1.45-66.93,5.45-133.06,19-198.59,7.9-38.32,13.93-77.06,23.21-115,6.54-26.76,16.86-52.63,26-78.72,11.1-31.66,21.38-63.71,34.49-94.53,15.69-36.86,32.36-73.5,51.62-108.58A1176.78,1176.78,0,0,1,255.77,95.5C282.93,56.63,316.14,25,364.19,10.64,378.72,6.32,392.15,1,407.72.15c33.49-1.79,62.61,12.46,90.06,26.91a777.93,777.93,0,0,1,165,116.34c36.53,33.68,70.81,70.16,103.08,108,16.57,19.42,32,27.91,57.71,23.32,57.3-10.2,115.14-9.42,172.57-.05,17.81,2.91,27.09-3.86,38.26-17.33A1259.24,1259.24,0,0,1,1121.26,163c54-53.06,115.4-96.83,181.56-133.37,26.44-14.61,53.84-28,85.7-29.5C1422.78-1.44,1451.46,13,1479.94,28c46.76,24.66,73.22,68.64,99.42,111.53a1318,1318,0,0,1,65.6,122c18.17,38.31,33.35,78.14,48,118,13.77,37.48,27,75.36,37,114,10.17,39.49,17.38,79.88,23.47,120.24,7.43,49.25,15.28,98.74,17.63,148.37,3.65,76.9,33.75,148.33,41.75,224,2.31,21.92,3.13,44.05,3.48,66.1.94,57.84,1.17,115.58-12.15,172.55a587.18,587.18,0,0,1-63.85,161.69c-49.61,85.64-119.9,150.27-205.41,198.34-52.34,29.43-107.31,53.06-165.54,69.47-73.51,20.71-147.51,37.76-224,41.63-83.24,4.21-166.53,7.5-249.79,11.19Zm12.54-61.32c109.22-.81,218.09-1.53,326.16-22.07,76.18-14.48,150.4-34,220.91-66.3,60.59-27.74,116.45-63.84,163.06-111.23,81-82.34,124.9-183.39,136-297.87,6.91-71.51,3.79-143.07-12.26-213.54-6.46-28.39-11.48-57.31-20.57-84.86-17.87-54.17-39-107-69.15-156-36.87-60-81.72-112.95-135.7-157.79-48.19-40-101-73.31-157.3-101.08a921,921,0,0,0-218.49-75.81c-50-10.5-100.85-17.33-151.39-25.32-77.08-12.18-153.8-3.76-229.72,8.64-52.57,8.58-105.1,20.54-155.76,36.86-56.38,18.15-112.5,39.21-165.3,65.82a690,690,0,0,0-178.84,129C208.66,625.42,166.89,683,136.37,747.89c-18.27,38.88-31,80.57-44,121.68-20.81,65.67-31.21,133.51-32.8,202.22A554.48,554.48,0,0,0,92.47,1275c19.71,54.52,48.49,103,85.3,147.25,32.74,39.33,71.31,72.45,115.91,96.87,43.13,23.62,87.7,45.36,133.49,63.15,37.46,14.55,77.21,24.19,116.72,32.19,51.82,10.49,104.14,20.65,156.73,24.74C769.54,1644.59,838.93,1643.88,908.12,1645.79ZM105.35,663.67c5.09-3.77,6.82-4.46,7.61-5.73,53.3-85.54,121.51-156.79,204.09-214.57C387.86,393.82,465.5,357.68,546.36,329c42.94-15.23,88.4-23.33,132.66-34.85,11-2.87,21.84-6.52,34.45-10.33-3.77-5.11-5-7.13-6.55-8.84C637.52,198.7,560.13,132.28,468.8,83.37,446.26,71.3,423.52,63.1,395.83,68c-40.09,7.14-65.88,31.25-87.64,62.18-62.34,88.63-107.65,185.63-144.26,287.43C138,489.7,123,564.07,108.07,638.66,106.66,645.74,106.47,653.05,105.35,663.67Zm1583.1-31.34h0a7.93,7.93,0,0,0,4.23-6.64c.23-4.29.55-8.6-.31-12.66-5.58-26.12-10.88-52.35-17.91-78.09-12-44-23.72-88.25-38.32-131.46-24.41-72.23-57-141-95.56-206.77-22.18-37.85-43.83-76.74-78.87-105-27.31-22-58.35-33.63-92.92-20.89a398.19,398.19,0,0,0-67,32.31c-71.93,43.24-134.53,98-191.48,159.42-5.47,5.89-9.79,12.85-16.13,21.3C1334.5,330.74,1544.22,425.78,1688.45,632.33Z"/><path class="cls-1" d="M908.12,1645.79c-69.19-1.91-138.58-1.2-207.5-6.55C648,1635.15,595.71,1625,543.89,1614.5c-39.51-8-79.26-17.64-116.72-32.19-45.79-17.79-90.36-39.53-133.49-63.15-44.6-24.42-83.17-57.54-115.91-96.87-36.81-44.21-65.59-92.73-85.3-147.25a554.48,554.48,0,0,1-32.9-203.25c1.59-68.71,12-136.55,32.8-202.22,13-41.11,25.73-82.8,44-121.68C166.89,683,208.66,625.42,259.73,574.25a690,690,0,0,1,178.84-129c52.8-26.61,108.92-47.67,165.3-65.82,50.66-16.32,103.19-28.28,155.76-36.86,75.92-12.4,152.64-20.82,229.72-8.64,50.54,8,101.36,14.82,151.39,25.32A921,921,0,0,1,1359.23,435c56.33,27.77,109.11,61,157.3,101.08,54,44.84,98.83,97.82,135.7,157.79,30.14,49,51.28,101.85,69.15,156,9.09,27.55,14.11,56.47,20.57,84.86,16,70.47,19.17,142,12.26,213.54-11.06,114.48-55,215.53-136,297.87-46.61,47.39-102.47,83.49-163.06,111.23-70.51,32.28-144.73,51.82-220.91,66.3C1126.21,1644.26,1017.34,1645,908.12,1645.79Zm457.46-678.48c.08.71.39,4,.52,5.33,2.68,25.71,3.07,48.63,12.6,73,20.08,51.38,56.8,86.13,111.89,100.58,30.09,7.89,58.73,3.45,88.22-1.78,44.45-7.89,80.65-41.18,85.55-86.13,3.58-32.86,3.53-66.33,2.32-99.43-2.22-60.62-24-112.9-68.83-155.51-57.25-54.47-139.28-50.27-189,14.36C1375.29,861.45,1362.2,912.26,1365.58,967.31Zm-919-7.41a238,238,0,0,0-36-130.67c-32.12-51.75-90.36-75-148-55.73-48.39,16.2-77.33,53.17-98.11,97.56-24.33,52-24.33,107.56-22.17,163.06,1,24.89,6.43,49.27,22.45,70,18.14,23.45,43,34.21,70.93,40.91,51.38,12.32,99.51,7.68,141.81-26.1C426,1080.25,447.52,1028.72,446.58,959.9Zm416.53,83.27c11.64,7.74,20.47,15.15,30.54,20,48.71,23.57,99.28,27.19,151,11.4,43.4-13.26,74.66-38.18,81.81-86.29,3.45-23.25-4.28-39.87-23.24-43-15.58-2.55-35.77,2.11-39,31.23-1.6,14.55-8.8,24.59-21.11,30.86-33,16.84-67.59,18-102.45,7.31C917.57,1007.6,903.6,992.12,896,968c-3.16-10.09-16.84-20.83-27.68-23.56-13.78-3.47-25.19,6.54-32.1,20.43-6,12.1-12.7,24.46-21.62,34.42-21.4,23.87-50.63,23.44-79.66,22.62-36.24-1-43.28-8.51-50.09-43.92-1.87-9.75-12.2-21.66-21.42-25.06-8.16-3-21.83,2.05-30.09,7.82-12.09,8.44-13.77,42.44-5.68,60.38,20.85,46.27,72.6,73.28,125.11,66.86C793.67,1083,832.81,1074.79,863.11,1043.17Z"/><path class="cls-1" d="M105.35,663.67c1.12-10.62,1.31-17.93,2.72-25,14.92-74.59,30-149,55.86-221,36.61-101.8,81.92-198.8,144.26-287.43C330,99.28,355.74,75.17,395.83,68c27.69-4.93,50.43,3.27,73,15.34C560.13,132.28,637.52,198.7,706.92,275c1.56,1.71,2.78,3.73,6.55,8.84-12.61,3.81-23.43,7.46-34.45,10.33C634.76,305.67,589.3,313.77,546.36,329c-80.86,28.68-158.5,64.82-229.31,114.37C234.47,501.15,166.26,572.4,113,657.94,112.17,659.21,110.44,659.9,105.35,663.67Z"/><path class="cls-1" d="M1688.45,632.33c-144.23-206.55-354-301.59-594.24-348.45,6.34-8.45,10.66-15.41,16.13-21.3,57-61.38,119.55-116.18,191.48-159.42a398.19,398.19,0,0,1,67-32.31c34.57-12.74,65.61-1.11,92.92,20.89,35,28.23,56.69,67.12,78.87,105,38.52,65.74,71.15,134.54,95.56,206.77,14.6,43.21,26.3,87.42,38.32,131.46,7,25.74,12.33,52,17.91,78.09.86,4.06.54,8.37.31,12.66a7.93,7.93,0,0,1-4.23,6.64Z"/><path d="M1365.58,967.31c-3.38-55,9.71-105.86,43.3-149.55,49.69-64.63,131.72-68.83,189-14.36,44.78,42.61,66.61,94.89,68.83,155.51,1.21,33.1,1.26,66.57-2.32,99.43-4.9,45-41.1,78.24-85.55,86.13-29.49,5.23-58.13,9.67-88.22,1.78-55.09-14.45-91.81-49.2-111.89-100.58-9.53-24.4-10.41-51.85-13.12-78.36Z"/><path d="M446.58,959.9c.94,68.82-20.62,120.35-69.06,159-42.3,33.78-90.43,38.42-141.81,26.1-28-6.7-52.79-17.46-70.93-40.91-16-20.71-21.47-45.09-22.45-70-2.16-55.5-2.16-111.09,22.17-163.06,20.78-44.39,49.72-81.36,98.11-97.56,57.61-19.29,115.85,4,148,55.73A238,238,0,0,1,446.58,959.9Z"/><path d="M863.11,1043.17c-30.3,31.62-69.44,39.82-110.31,44.82-52.51,6.42-104.26-20.59-125.11-66.86-8.09-17.94-6.41-51.94,5.68-60.38,8.26-5.77,21.93-10.83,30.09-7.82,9.22,3.4,19.55,15.31,21.42,25.06,6.81,35.41,13.85,42.9,50.09,43.92,29,.82,58.26,1.25,79.66-22.62,8.92-10,15.6-22.32,21.62-34.42,6.91-13.89,18.32-23.9,32.1-20.43,10.84,2.73,24.52,13.47,27.68,23.56,7.57,24.12,21.54,39.6,44.65,46.71,34.86,10.72,69.43,9.53,102.45-7.31,12.31-6.27,19.51-16.31,21.11-30.86,3.2-29.12,23.39-33.78,39-31.23,19,3.12,26.69,19.74,23.24,43-7.15,48.11-38.41,73-81.81,86.29-51.71,15.79-102.28,12.17-151-11.4C883.58,1058.32,874.75,1050.91,863.11,1043.17Z"/></g></g></svg>